<svg xmlns="http://www.w3.org/2000/svg" xmlns:xlink="http://www.w3.org/1999/xlink">
<defs>
<style>
.p{fill:currentColor;stroke:var(--piece-stroke,#222);stroke-width:4;stroke-linejoin:round;stroke-linecap:round}
.d{fill:none;stroke:var(--piece-stroke,#222);stroke-width:4;stroke-linejoin:round;stroke-linecap:round}
.iText{fill:#fff;font-family:Arial,sans-serif;font-weight:900;text-anchor:middle;dominant-baseline:central}
</style>

<symbol id="piece-wp" viewBox="0 0 100 100"><g class="p"><circle cx="50" cy="25" r="14"/><path d="M38 40h24c0 14 7 22 13 29H25c6-7 13-15 13-29z"/><path d="M24 69h52l7 13H17z"/><path d="M14 82h72v10H14z"/></g></symbol>
<symbol id="piece-bp" viewBox="0 0 100 100"><g class="p"><circle cx="50" cy="25" r="14"/><path d="M38 40h24c0 14 7 22 13 29H25c6-7 13-15 13-29z"/><path d="M24 69h52l7 13H17z"/><path d="M14 82h72v10H14z"/></g></symbol>

<symbol id="piece-wr" viewBox="0 0 100 100"><g class="p"><path d="M19 12h15v12h12V12h10v12h12V12h14v27H19z"/><path d="M27 39h46l-4 35H31z"/><path d="M25 72h50l8 11H17z"/><path d="M14 83h72v10H14z"/></g><path class="d" d="M25 39h50M30 72h40"/></symbol>
<symbol id="piece-br" viewBox="0 0 100 100"><g class="p"><path d="M19 12h15v12h12V12h10v12h12V12h14v27H19z"/><path d="M27 39h46l-4 35H31z"/><path d="M25 72h50l8 11H17z"/><path d="M14 83h72v10H14z"/></g><path class="d" d="M25 39h50M30 72h40"/></symbol>

<symbol id="piece-wn" viewBox="0 0 100 100"><g class="p"><path d="M24 76c3-20 8-35 21-45l-8-12 26 4c14 9 19 24 13 40l-10-8-9 10 17 11 8 8H17z"/><path d="M16 84h68v9H16z"/></g><circle cx="59" cy="34" r="3.5" fill="var(--piece-stroke,#222)"/><path class="d" d="M45 31c-8 14-4 24 4 31M37 19l16 17"/></symbol>
<symbol id="piece-bn" viewBox="0 0 100 100"><g class="p"><path d="M24 76c3-20 8-35 21-45l-8-12 26 4c14 9 19 24 13 40l-10-8-9 10 17 11 8 8H17z"/><path d="M16 84h68v9H16z"/></g><circle cx="59" cy="34" r="3.5" fill="var(--piece-stroke,#222)"/><path class="d" d="M45 31c-8 14-4 24 4 31M37 19l16 17"/></symbol>

<symbol id="piece-wb" viewBox="0 0 100 100"><g class="p"><path d="M50 10c13 10 21 21 20 33-1 12-10 19-17 25H47c-8-6-17-13-17-25 0-12 8-23 20-33z"/><path d="M28 68h44l8 14H20z"/><path d="M16 82h68v10H16z"/></g><path class="d" d="M57 24L42 51M31 68h38"/></symbol>
<symbol id="piece-bb" viewBox="0 0 100 100"><g class="p"><path d="M50 10c13 10 21 21 20 33-1 12-10 19-17 25H47c-8-6-17-13-17-25 0-12 8-23 20-33z"/><path d="M28 68h44l8 14H20z"/><path d="M16 82h68v10H16z"/></g><path class="d" d="M57 24L42 51M31 68h38"/></symbol>

<symbol id="piece-wq" viewBox="0 0 100 100"><g class="p"><circle cx="18" cy="18" r="7"/><circle cx="39" cy="12" r="7"/><circle cx="61" cy="12" r="7"/><circle cx="82" cy="18" r="7"/><path d="M18 24l12 39h40l12-39-21 22-11-28-11 28z"/><path d="M27 63h46l6 17H21z"/><path d="M17 80h66v12H17z"/></g><path class="d" d="M28 63h44M23 80h54"/></symbol>
<symbol id="piece-bq" viewBox="0 0 100 100"><g class="p"><circle cx="18" cy="18" r="7"/><circle cx="39" cy="12" r="7"/><circle cx="61" cy="12" r="7"/><circle cx="82" cy="18" r="7"/><path d="M18 24l12 39h40l12-39-21 22-11-28-11 28z"/><path d="M27 63h46l6 17H21z"/><path d="M17 80h66v12H17z"/></g><path class="d" d="M28 63h44M23 80h54"/></symbol>

<symbol id="piece-wk" viewBox="0 0 100 100"><g class="p"><path d="M45 8h10v12h12v10H55v12H45V30H33V20h12z"/><path d="M31 42c5-7 12-10 19-10s14 3 19 10c7 10 2 21-6 29H37c-8-8-13-19-6-29z"/><path d="M25 69h50l7 13H18z"/><path d="M14 82h72v11H14z"/></g><path class="d" d="M30 69h40"/></symbol>
<symbol id="piece-bk" viewBox="0 0 100 100"><g class="p"><path d="M45 8h10v12h12v10H55v12H45V30H33V20h12z"/><path d="M31 42c5-7 12-10 19-10s14 3 19 10c7 10 2 21-6 29H37c-8-8-13-19-6-29z"/><path d="M25 69h50l7 13H18z"/><path d="M14 82h72v11H14z"/></g><path class="d" d="M30 69h40"/></symbol>

<symbol id="icon-brilliant" viewBox="0 0 40 40"><circle cx="20" cy="20" r="18" fill="#18b9b4"/><text class="iText" x="20" y="21" font-size="18">!!</text></symbol>
<symbol id="icon-great" viewBox="0 0 40 40"><circle cx="20" cy="20" r="18" fill="#4a97bd"/><text class="iText" x="20" y="21" font-size="22">!</text></symbol>
<symbol id="icon-best" viewBox="0 0 40 40"><circle cx="20" cy="20" r="18" fill="#8abb43"/><path d="M20 8l3.6 7.3 8.1 1.2-5.9 5.7 1.4 8.1-7.2-3.8-7.2 3.8 1.4-8.1-5.9-5.7 8.1-1.2z" fill="#fff"/></symbol>
<symbol id="icon-excellent" viewBox="0 0 40 40"><circle cx="20" cy="20" r="18" fill="#84af43"/><path d="M11 21h5l4-9c1-2 4-1 4 1v5h4c2 0 3 2 2 4l-3 7c-.5 1-1.5 2-3 2h-8V20M11 20v11" fill="none" stroke="#fff" stroke-width="3.2" stroke-linecap="round" stroke-linejoin="round"/></symbol>
<symbol id="icon-good" viewBox="0 0 40 40"><circle cx="20" cy="20" r="18" fill="#88a47d"/><path d="M11 20l6 6 12-13" fill="none" stroke="#fff" stroke-width="4" stroke-linecap="round" stroke-linejoin="round"/></symbol>
<symbol id="icon-book" viewBox="0 0 40 40"><circle cx="20" cy="20" r="18" fill="#a88b70"/><path d="M10 12c5-1 8 0 10 3v15c-2-3-5-4-10-3zm20 0c-5-1-8 0-10 3v15c2-3 5-4 10-3z" fill="#fff"/></symbol>
<symbol id="icon-inaccuracy" viewBox="0 0 40 40"><circle cx="20" cy="20" r="18" fill="#e0ad24"/><text class="iText" x="20" y="21" font-size="16">?!</text></symbol>
<symbol id="icon-mistake" viewBox="0 0 40 40"><circle cx="20" cy="20" r="18" fill="#df851d"/><text class="iText" x="20" y="21" font-size="22">?</text></symbol>
<symbol id="icon-miss" viewBox="0 0 40 40"><circle cx="20" cy="20" r="18" fill="#df594c"/><path d="M13 13l14 14M27 13L13 27" stroke="#fff" stroke-width="4" stroke-linecap="round"/></symbol>
<symbol id="icon-blunder" viewBox="0 0 40 40"><circle cx="20" cy="20" r="18" fill="#d9363e"/><text class="iText" x="20" y="21" font-size="16">??</text></symbol>
</defs>
</svg>